<svg width="35" height="20" viewBox="0 0 35 20" fill="none" xmlns="http://www.w3.org/2000/svg">
<path d="M5.48438 7.49934H2.15104C1.70901 7.49934 1.28509 7.67493 0.97253 7.98749C0.65997 8.30006 0.484375 8.72398 0.484375 9.16601C0.484375 9.60803 0.65997 10.032 0.97253 10.3445C1.28509 10.6571 1.70901 10.8327 2.15104 10.8327H5.48438C5.9264 10.8327 6.35033 10.6571 6.66289 10.3445C6.97545 10.032 7.15104 9.60803 7.15104 9.16601C7.15104 8.72398 6.97545 8.30006 6.66289 7.98749C6.35033 7.67493 5.9264 7.49934 5.48438 7.49934ZM33.451 2.76601V2.66601C32.9735 2.08232 32.3702 1.61421 31.6861 1.29673C31.0021 0.979238 30.2551 0.820595 29.501 0.832673H16.2844C15.0597 0.821673 13.8736 1.26053 12.951 2.06601C12.0894 2.82523 11.5229 3.86384 11.351 4.99934L9.88438 13.3327C9.75825 14.0523 9.79138 14.7909 9.98143 15.4964C10.1715 16.2018 10.5138 16.8571 10.9844 17.416C11.4525 17.9731 12.0365 18.4212 12.6957 18.7293C13.3549 19.0373 14.0734 19.1977 14.801 19.1993H28.0344C29.2231 19.2173 30.3794 18.8111 31.2957 18.0536C32.212 17.2961 32.8284 16.2369 33.0344 15.066L34.501 6.73267C34.6166 6.03484 34.5827 5.32044 34.4017 4.63667C34.2207 3.95289 33.8967 3.3153 33.451 2.76601ZM28.8844 4.16601L23.2177 8.76601C22.8827 9.03603 22.4562 9.16601 22.0275 9.12873C21.5988 9.09145 21.2011 8.88981 20.9177 8.56601L17.0344 4.16601H28.8844ZM29.6844 14.4493C29.6169 14.8407 29.4119 15.195 29.1064 15.4487C28.8008 15.7023 28.4148 15.8384 28.0177 15.8327H14.801C14.559 15.8306 14.3203 15.7759 14.1016 15.6723C13.8828 15.5687 13.6893 15.4187 13.5344 15.2327C13.3791 15.0477 13.2659 14.8311 13.2025 14.598C13.1392 14.3649 13.1273 14.1208 13.1677 13.8827L14.501 6.33267L18.4177 10.766C19.2702 11.735 20.4644 12.3367 21.7504 12.4454C23.0364 12.5542 24.3146 12.1614 25.3177 11.3493L31.051 6.66601L29.6844 14.4493ZM7.15104 0.832673H2.15104C1.70901 0.832673 1.28509 1.00827 0.97253 1.32083C0.65997 1.63339 0.484375 2.05731 0.484375 2.49934C0.484375 2.94137 0.65997 3.36529 0.97253 3.67785C1.28509 3.99041 1.70901 4.16601 2.15104 4.16601H7.15104C7.59307 4.16601 8.01699 3.99041 8.32955 3.67785C8.64211 3.36529 8.81771 2.94137 8.81771 2.49934C8.81771 2.05731 8.64211 1.63339 8.32955 1.32083C8.01699 1.00827 7.59307 0.832673 7.15104 0.832673Z" fill="white"/>
</svg>
