<svg width="24" height="24" viewBox="0 0 24 24" fill="none" xmlns="http://www.w3.org/2000/svg">
<path d="M12 22C17.5228 22 22 17.5228 22 12C22 6.47715 17.5228 2 12 2C6.47715 2 2 6.47715 2 12C2 17.5228 6.47715 22 12 22Z" fill="#BCC5D3" stroke="white" stroke-width="2" stroke-linecap="round" stroke-linejoin="round"/>
<path d="M9.08984 8.99862C9.32495 8.33028 9.789 7.76672 10.3998 7.40775C11.0106 7.04878 11.7287 6.91755 12.427 7.03733C13.1253 7.1571 13.7587 7.52014 14.2149 8.06214C14.6712 8.60415 14.9209 9.29014 14.9198 9.99862C14.9198 11.9986 11.9198 12.9986 11.9198 12.9986" stroke="white" stroke-width="2" stroke-linecap="round" stroke-linejoin="round"/>
<path d="M12 17H12.0092" stroke="white" stroke-width="2" stroke-linecap="round" stroke-linejoin="round"/>
</svg>
